<svg width="40" height="50" viewBox="0 0 40 50" fill="none" xmlns="http://www.w3.org/2000/svg">
<path d="M2.10981 0.5H28.0223C28.0972 0.5 28.1705 0.530028 28.2247 0.583586C28.2248 0.583754 28.225 0.583922 28.2252 0.584091L38.6123 10.9712L38.6134 10.9723L38.6143 10.9732C38.626 10.9849 38.6382 10.997 38.6536 11.0545C38.6757 11.1373 38.6964 11.2911 38.6964 11.5875V49.069C38.6927 49.0758 38.6872 49.0853 38.6791 49.0973C38.6463 49.146 38.5887 49.2105 38.506 49.2751C38.3383 49.4061 38.1172 49.5 37.8902 49.5H2.10981C1.88277 49.5 1.66164 49.4061 1.49401 49.2751C1.41131 49.2105 1.35373 49.146 1.32092 49.0973C1.31281 49.0853 1.30726 49.0758 1.30356 49.069V1.71964C1.30356 1.2344 1.42842 0.927225 1.57267 0.751445C1.71077 0.583154 1.89351 0.5 2.10981 0.5ZM1.297 49.0551C1.29702 49.0551 1.29716 49.0555 1.2974 49.0562L1.297 49.0551Z" fill="#F4F8FB" stroke="#E0E3F0"/>
<path d="M28.4821 0.134766V10.7142H39.0616L28.4821 0.134766Z" fill="#E0E3F0"/>
<path d="M12.4232 29.7536C12.1125 29.7536 11.8143 29.6527 11.5598 29.4625C10.6303 28.7652 10.5053 27.9893 10.5643 27.4607C10.7268 26.0071 12.5241 24.4857 15.908 22.9357C17.2509 19.9928 18.5286 16.367 19.2902 13.3375C18.3991 11.3982 17.533 8.88213 18.1643 7.40624C18.3857 6.88928 18.6616 6.49285 19.1768 6.32142C19.3803 6.25356 19.8946 6.16785 20.0839 6.16785C20.5339 6.16785 20.9294 6.74731 21.2098 7.10445C21.4732 7.44017 22.0705 8.15178 20.8768 13.1777C22.0803 15.6634 23.7857 18.1955 25.4196 19.9295C26.5902 19.7178 27.5973 19.6098 28.4178 19.6098C29.8161 19.6098 30.6634 19.9357 31.0089 20.6071C31.2946 21.1625 31.1777 21.8116 30.6607 22.5357C30.1634 23.2312 29.4777 23.5991 28.6786 23.5991C27.5928 23.5991 26.3285 22.9134 24.9187 21.5589C22.3857 22.0884 19.4277 23.033 17.0366 24.0786C16.2902 25.6625 15.575 26.9384 14.9089 27.8741C13.9937 29.1553 13.2044 29.7536 12.4232 29.7536ZM14.8 25.1768C12.8919 26.2491 12.1143 27.1303 12.058 27.6268C12.0491 27.7089 12.025 27.925 12.4428 28.2446C12.5759 28.2027 13.3527 27.8482 14.8 25.1768ZM26.9759 21.2107C27.7036 21.7705 27.8812 22.0536 28.3571 22.0536C28.5661 22.0536 29.1616 22.0446 29.4375 21.6598C29.5705 21.4732 29.6223 21.3536 29.6428 21.2893C29.533 21.2312 29.3875 21.1134 28.5937 21.1134C28.1428 21.1143 27.5759 21.1339 26.9759 21.2107ZM20.3062 15.3339C19.6678 17.5428 18.825 19.9277 17.9187 22.0875C19.7848 21.3634 21.8134 20.7312 23.7187 20.2839C22.5134 18.8839 21.3089 17.1357 20.3062 15.3339ZM19.7643 7.77856C19.6768 7.80803 18.5768 9.34731 19.85 10.65C20.6973 8.7616 19.8027 7.76606 19.7643 7.77856Z" fill="#FF785F"/>
<path d="M37.8902 50H2.10981C1.38838 50 0.803558 49.4152 0.803558 48.6937V34.8214H39.1964V48.6937C39.1964 49.4152 38.6116 50 37.8902 50Z" fill="#FF785F"/>
<path d="M10.5223 47.3214H9.05713V38.325H11.6446C12.0268 38.325 12.4053 38.3857 12.7794 38.508C13.1536 38.6303 13.4893 38.8133 13.7866 39.0571C14.0839 39.3008 14.3241 39.5964 14.5071 39.9419C14.6902 40.2875 14.7821 40.6758 14.7821 41.108C14.7821 41.5642 14.7044 41.9767 14.55 42.3473C14.3955 42.7178 14.1794 43.0294 13.9027 43.2812C13.6259 43.533 13.2919 43.7285 12.9018 43.8669C12.5116 44.0053 12.0794 44.0741 11.608 44.0741H10.5214V47.3214H10.5223ZM10.5223 39.4357V43H11.8652C12.0437 43 12.2205 42.9696 12.3964 42.908C12.5714 42.8473 12.7321 42.7473 12.8786 42.6089C13.025 42.4705 13.1428 42.2776 13.2321 42.0294C13.3214 41.7812 13.3661 41.4741 13.3661 41.108C13.3661 40.9616 13.3455 40.7919 13.3053 40.6017C13.2643 40.4107 13.1812 40.2276 13.0553 40.0526C12.9286 39.8776 12.7518 39.7312 12.5241 39.6133C12.2964 39.4955 11.9946 39.4366 11.6205 39.4366H10.5223V39.4357Z" fill="white"/>
<path d="M23.767 42.5732C23.767 43.3133 23.6875 43.9464 23.5286 44.4714C23.3696 44.9964 23.1687 45.4357 22.9241 45.7901C22.6795 46.1446 22.4054 46.4232 22.1 46.6267C21.7946 46.8303 21.5 46.9821 21.2152 47.0848C20.9304 47.1866 20.6696 47.2517 20.4339 47.2803C20.1982 47.3071 20.0232 47.3214 19.9089 47.3214H16.5036V38.325H19.2134C19.9705 38.325 20.6357 38.4455 21.2089 38.6848C21.7821 38.9241 22.2589 39.2446 22.6375 39.6428C23.0161 40.041 23.2982 40.4955 23.4857 41.0035C23.6732 41.5125 23.767 42.0357 23.767 42.5732ZM19.4214 46.2473C20.4143 46.2473 21.1304 45.9303 21.5696 45.2955C22.0089 44.6607 22.2286 43.741 22.2286 42.5366C22.2286 42.1625 22.1839 41.7919 22.0946 41.4258C22.0045 41.0598 21.8321 40.7285 21.5759 40.4312C21.3196 40.1339 20.9714 39.8937 20.5321 39.7107C20.0929 39.5276 19.5232 39.4357 18.8232 39.4357H17.9687V46.2473H19.4214Z" fill="white"/>
<path d="M27.3803 39.4357V42.2678H31.1402V43.2687H27.3803V47.3214H25.8911V38.325H31.5178V39.4357H27.3803Z" fill="white"/>
</svg>
